<?xml version="1.0" encoding="UTF-8" standalone="no"?>
<svg width="800" height="600" xmlns="http://www.w3.org/2000/svg">
  <!-- λ°°κ²½ -->
  <rect width="800" height="600" fill="#f8f9fa" />
  
  <!-- ν—¤λ” -->
  <rect x="50" y="30" width="700" height="60" fill="#ffffff" stroke="#dee2e6" stroke-width="1" rx="4" />
  <text x="70" y="65" font-family="Arial" font-size="20" font-weight="bold" fill="#212529">Todo App</text>
  <rect x="600" y="45" width="120" height="30" fill="#0d6efd" rx="4" />
  <text x="625" y="65" font-family="Arial" font-size="14" fill="#ffffff">μƒ ν• μΌ μ¶”κ°€</text>
  
  <!-- ν•„ν„° μμ—­ -->
  <rect x="50" y="110" width="700" height="50" fill="#ffffff" stroke="#dee2e6" stroke-width="1" rx="4" />
  <rect x="70" y="120" width="100" height="30" fill="#f8f9fa" stroke="#dee2e6" stroke-width="1" rx="4" />
  <text x="85" y="140" font-family="Arial" font-size="14" fill="#212529">λ¨λ“  μƒνƒ</text>
  <rect x="180" y="120" width="100" height="30" fill="#f8f9fa" stroke="#dee2e6" stroke-width="1" rx="4" />
  <text x="195" y="140" font-family="Arial" font-size="14" fill="#212529">λ¨λ“  μ°μ„ μμ„</text>
  <rect x="500" y="120" width="230" height="30" fill="#ffffff" stroke="#dee2e6" stroke-width="1" rx="4" />
  <text x="510" y="140" font-family="Arial" font-size="14" fill="#6c757d">κ²€μƒ‰...</text>
  
  <!-- Todo λ¦¬μ¤νΈ μμ—­ -->
  <rect x="50" y="180" width="700" height="370" fill="#ffffff" stroke="#dee2e6" stroke-width="1" rx="4" />
  
  <!-- Todo ν•­λ© 1 -->
  <rect x="70" y="200" width="660" height="60" fill="#ffffff" stroke="#dee2e6" stroke-width="1" rx="4" />
  <circle cx="90" cy="230" r="10" fill="#ffffff" stroke="#0d6efd" stroke-width="2" />
  <text x="120" y="225" font-family="Arial" font-size="16" font-weight="bold" fill="#212529">ν”„λ΅μ νΈ κ³„ν μ‘μ„±ν•κΈ°</text>
  <text x="120" y="245" font-family="Arial" font-size="14" fill="#6c757d">λ§κ°μΌ: 2025-04-10</text>
  <rect x="600" y="215" width="30" height="30" fill="#ffffff" stroke="#dee2e6" stroke-width="1" rx="4" />
  <text x="610" y="235" font-family="Arial" font-size="14" fill="#212529">βοΈ</text>
  <rect x="640" y="215" width="30" height="30" fill="#ffffff" stroke="#dee2e6" stroke-width="1" rx="4" />
  <text x="650" y="235" font-family="Arial" font-size="14" fill="#212529">π—‘οΈ</text>
  <rect x="560" y="215" width="30" height="30" fill="#ffffff" stroke="#ffc107" stroke-width="1" rx="4" />
  <text x="565" y="235" font-family="Arial" font-size="12" fill="#212529">μ¤‘κ°„</text>
  
  <!-- Todo ν•­λ© 2 -->
  <rect x="70" y="270" width="660" height="60" fill="#ffffff" stroke="#dee2e6" stroke-width="1" rx="4" />
  <circle cx="90" cy="300" r="10" fill="#0d6efd" stroke="#0d6efd" stroke-width="2" />
  <text x="120" y="295" font-family="Arial" font-size="16" font-weight="bold" fill="#212529" text-decoration="line-through">μ΄λ©”μΌ ν™•μΈν•κΈ°</text>
  <text x="120" y="315" font-family="Arial" font-size="14" fill="#6c757d">λ§κ°μΌ: 2025-04-03</text>
  <rect x="600" y="285" width="30" height="30" fill="#ffffff" stroke="#dee2e6" stroke-width="1" rx="4" />
  <text x="610" y="305" font-family="Arial" font-size="14" fill="#212529">βοΈ</text>
  <rect x="640" y="285" width="30" height="30" fill="#ffffff" stroke="#dee2e6" stroke-width="1" rx="4" />
  <text x="650" y="305" font-family="Arial" font-size="14" fill="#212529">π—‘οΈ</text>
  <rect x="560" y="285" width="30" height="30" fill="#ffffff" stroke="#28a745" stroke-width="1" rx="4" />
  <text x="565" y="305" font-family="Arial" font-size="12" fill="#212529">λ‚®μ</text>
  
  <!-- Todo ν•­λ© 3 -->
  <rect x="70" y="340" width="660" height="60" fill="#ffffff" stroke="#dee2e6" stroke-width="1" rx="4" />
  <circle cx="90" cy="370" r="10" fill="#ffffff" stroke="#0d6efd" stroke-width="2" />
  <text x="120" y="365" font-family="Arial" font-size="16" font-weight="bold" fill="#212529">ν΄λΌμ΄μ–ΈνΈ λ―Έν… μ¤€λΉ„</text>
  <text x="120" y="385" font-family="Arial" font-size="14" fill="#6c757d">λ§κ°μΌ: 2025-04-05</text>
  <rect x="600" y="355" width="30" height="30" fill="#ffffff" stroke="#dee2e6" stroke-width="1" rx="4" />
  <text x="610" y="375" font-family="Arial" font-size="14" fill="#212529">βοΈ</text>
  <rect x="640" y="355" width="30" height="30" fill="#ffffff" stroke="#dee2e6" stroke-width="1" rx="4" />
  <text x="650" y="375" font-family="Arial" font-size="14" fill="#212529">π—‘οΈ</text>
  <rect x="560" y="355" width="30" height="30" fill="#ffffff" stroke="#dc3545" stroke-width="1" rx="4" />
  <text x="565" y="375" font-family="Arial" font-size="12" fill="#212529">λ†’μ</text>
  
  <!-- νμ΄μ§€λ„¤μ΄μ… -->
  <rect x="350" y="500" width="100" height="30" fill="#ffffff" stroke="#dee2e6" stroke-width="1" rx="4" />
  <text x="380" y="520" font-family="Arial" font-size="14" fill="#212529">1 2 3</text>
</svg>
