<?xml version="1.0" encoding="UTF-8" standalone="no"?>
<svg width="360" height="640" xmlns="http://www.w3.org/2000/svg">
  <!-- λ°°κ²½ -->
  <rect width="360" height="640" fill="#f8f9fa" />
  
  <!-- ν—¤λ” -->
  <rect x="10" y="10" width="340" height="60" fill="#ffffff" stroke="#dee2e6" stroke-width="1" rx="4" />
  <text x="20" y="45" font-family="Arial" font-size="20" font-weight="bold" fill="#212529">Todo App</text>
  <circle cx="320" cy="40" r="20" fill="#0d6efd" />
  <text x="315" y="45" font-family="Arial" font-size="20" fill="#ffffff">+</text>
  
  <!-- ν•„ν„° μμ—­ -->
  <rect x="10" y="80" width="340" height="90" fill="#ffffff" stroke="#dee2e6" stroke-width="1" rx="4" />
  <rect x="20" y="90" width="320" height="30" fill="#ffffff" stroke="#dee2e6" stroke-width="1" rx="4" />
  <text x="30" y="110" font-family="Arial" font-size="14" fill="#6c757d">κ²€μƒ‰...</text>
  <rect x="20" y="130" width="150" height="30" fill="#f8f9fa" stroke="#dee2e6" stroke-width="1" rx="4" />
  <text x="35" y="150" font-family="Arial" font-size="14" fill="#212529">λ¨λ“  μƒνƒ</text>
  <rect x="180" y="130" width="160" height="30" fill="#f8f9fa" stroke="#dee2e6" stroke-width="1" rx="4" />
  <text x="195" y="150" font-family="Arial" font-size="14" fill="#212529">λ¨λ“  μ°μ„ μμ„</text>
  
  <!-- Todo λ¦¬μ¤νΈ μμ—­ -->
  <rect x="10" y="180" width="340" height="410" fill="#ffffff" stroke="#dee2e6" stroke-width="1" rx="4" />
  
  <!-- Todo ν•­λ© 1 -->
  <rect x="20" y="190" width="320" height="80" fill="#ffffff" stroke="#dee2e6" stroke-width="1" rx="4" />
  <circle cx="40" cy="220" r="10" fill="#ffffff" stroke="#0d6efd" stroke-width="2" />
  <text x="60" y="210" font-family="Arial" font-size="14" font-weight="bold" fill="#212529">ν”„λ΅μ νΈ κ³„ν μ‘μ„±ν•κΈ°</text>
  <text x="60" y="230" font-family="Arial" font-size="12" fill="#6c757d">λ§κ°μΌ: 2025-04-10</text>
  <rect x="60" y="240" width="50" height="20" fill="#ffffff" stroke="#ffc107" stroke-width="1" rx="4" />
  <text x="70" y="255" font-family="Arial" font-size="10" fill="#212529">μ¤‘κ°„</text>
  <rect x="270" y="200" width="30" height="30" fill="#ffffff" stroke="#dee2e6" stroke-width="1" rx="4" />
  <text x="280" y="220" font-family="Arial" font-size="14" fill="#212529">βοΈ</text>
  <rect x="270" y="240" width="30" height="20" fill="#ffffff" stroke="#dee2e6" stroke-width="1" rx="4" />
  <text x="280" y="255" font-family="Arial" font-size="14" fill="#212529">π—‘οΈ</text>
  
  <!-- Todo ν•­λ© 2 -->
  <rect x="20" y="280" width="320" height="80" fill="#ffffff" stroke="#dee2e6" stroke-width="1" rx="4" />
  <circle cx="40" cy="310" r="10" fill="#0d6efd" stroke="#0d6efd" stroke-width="2" />
  <text x="60" y="300" font-family="Arial" font-size="14" font-weight="bold" fill="#212529" text-decoration="line-through">μ΄λ©”μΌ ν™•μΈν•κΈ°</text>
  <text x="60" y="320" font-family="Arial" font-size="12" fill="#6c757d">λ§κ°μΌ: 2025-04-03</text>
  <rect x="60" y="330" width="50" height="20" fill="#ffffff" stroke="#28a745" stroke-width="1" rx="4" />
  <text x="70" y="345" font-family="Arial" font-size="10" fill="#212529">λ‚®μ</text>
  <rect x="270" y="290" width="30" height="30" fill="#ffffff" stroke="#dee2e6" stroke-width="1" rx="4" />
  <text x="280" y="310" font-family="Arial" font-size="14" fill="#212529">βοΈ</text>
  <rect x="270" y="330" width="30" height="20" fill="#ffffff" stroke="#dee2e6" stroke-width="1" rx="4" />
  <text x="280" y="345" font-family="Arial" font-size="14" fill="#212529">π—‘οΈ</text>
  
  <!-- Todo ν•­λ© 3 -->
  <rect x="20" y="370" width="320" height="80" fill="#ffffff" stroke="#dee2e6" stroke-width="1" rx="4" />
  <circle cx="40" cy="400" r="10" fill="#ffffff" stroke="#0d6efd" stroke-width="2" />
  <text x="60" y="390" font-family="Arial" font-size="14" font-weight="bold" fill="#212529">ν΄λΌμ΄μ–ΈνΈ λ―Έν… μ¤€λΉ„</text>
  <text x="60" y="410" font-family="Arial" font-size="12" fill="#6c757d">λ§κ°μΌ: 2025-04-05</text>
  <rect x="60" y="420" width="50" height="20" fill="#ffffff" stroke="#dc3545" stroke-width="1" rx="4" />
  <text x="70" y="435" font-family="Arial" font-size="10" fill="#212529">λ†’μ</text>
  <rect x="270" y="380" width="30" height="30" fill="#ffffff" stroke="#dee2e6" stroke-width="1" rx="4" />
  <text x="280" y="400" font-family="Arial" font-size="14" fill="#212529">βοΈ</text>
  <rect x="270" y="420" width="30" height="20" fill="#ffffff" stroke="#dee2e6" stroke-width="1" rx="4" />
  <text x="280" y="435" font-family="Arial" font-size="14" fill="#212529">π—‘οΈ</text>
  
  <!-- νμ΄μ§€λ„¤μ΄μ… -->
  <rect x="130" y="560" width="100" height="30" fill="#ffffff" stroke="#dee2e6" stroke-width="1" rx="4" />
  <text x="160" y="580" font-family="Arial" font-size="14" fill="#212529">1 2 3</text>
  
  <!-- ν”λ΅ν… μ•΅μ… λ²„νΌ (λ¨λ°”μΌ μ „μ©) -->
  <circle cx="320" cy="600" r="25" fill="#0d6efd" />
  <text x="315" y="605" font-family="Arial" font-size="24" font-weight="bold" fill="#ffffff">+</text>
</svg>
